# xmcd CD database file
#
# Track frame offsets:
#	150
#	17821
#	33536
#	48377
#	62704
#	80542
#	94548
#	113761
#	126429
#	143341
#	155749
#	171902
#	192438
#	206634
#
# Disc length: 2958 seconds
#
# Revision: 0
# Processed by: cddbd v1.5.2PL0 Copyright (c) Steve Scherf et al.
# Submitted via: CDex 1.70beta2
#
DISCID=c10b8c0e
DTITLE=João Paulo e Daniel  - Saudade - Disco 3
DYEAR=2009
DGENRE=Country
TTITLE0=Canção da América (ao vivo) Daniel 
TTITLE1=A Loira do Carro Branco
TTITLE2=Eu Me Amarrei
TTITLE3=Tá Faltando Amor
TTITLE4=Dia de Visita
TTITLE5=Amargurado
TTITLE6=Que Dure para Sempre
TTITLE7=Nossa Música
TTITLE8=Cuida de Mim
TTITLE9=O Cheiro Dela
TTITLE10=Menina Manhosa
TTITLE11=Paloma (La Paloma)
TTITLE12=Caminhoneiro do Amor
TTITLE13=Enrosca, enrosca
EXTD=YEAR: 2009
EXTT0=
EXTT1=
EXTT2=
EXTT3=
EXTT4=
EXTT5=
EXTT6=
EXTT7=
EXTT8=
EXTT9=
EXTT10=
EXTT11=
EXTT12=
EXTT13=
PLAYORDER=
